<svg width="24" height="24" viewBox="0 0 24 24" fill="none" xmlns="http://www.w3.org/2000/svg">
<path d="M20.4198 4.58045C19.9182 4.07702 19.322 3.67758 18.6657 3.40503C18.0093 3.13248 17.3056 2.99219 16.5948 2.99219C15.8841 2.99219 15.1804 3.13248 14.524 3.40503C13.8676 3.67758 13.2715 4.07702 12.7698 4.58045L11.9998 5.36045L11.2298 4.58045C10.7282 4.07702 10.132 3.67758 9.47566 3.40503C8.81928 3.13248 8.11556 2.99219 7.40484 2.99219C6.69413 2.99219 5.9904 3.13248 5.33402 3.40503C4.67764 3.67758 4.08152 4.07702 3.57984 4.58045C1.45984 6.70045 1.32984 10.2804 3.99984 13.0004L11.9998 21.0004L19.9998 13.0004C22.6698 10.2804 22.5398 6.70045 20.4198 4.58045Z" fill="#FAFAF9" stroke="#FAFAF9" stroke-width="1.28" stroke-linecap="round" stroke-linejoin="round"/>
</svg>
